# xmcd
#
# Track frame offsets: 
#        182
#        11980
#        24807
#        38142
#        50310
#        63987
#        78092
#        98855
#        114512
#        128792
#        142987
#        164315
#        180702
#        194305
#        206095
#        221127
#        233790
#        245217
#        261672
#        275170
#
# Disc length: 3818 seconds
#
# Revision: 2
# Processed by: cddbd v1.5.2PL0 Copyright (c) Steve Scherf et al.
# Submitted via: ExactAudioCopy v1.3
#
DISCID=270ee814
DTITLE=Various Artist - Country Gold - 20 Classics Vol. 1
DYEAR=1992
DGENRE=Country
TTITLE0=Patsy Cline - Sweet dreams
TTITLE1=Don Williams - You're my best friend
TTITLE2=Glen Campbell and Tanya Tucker - Dream lover
TTITLE3=Crystal Gayle - I've cried the blue (right out of my eyes)
TTITLE4=Loretta Lynn - Coal miner's daughter
TTITLE5=Merle Haggard - Ramblin' fever
TTITLE6=Brenda Lee - Big four posted bed
TTITLE7=Oak Ridge Boys - Sail away
TTITLE8=Conway Twitty - You've never been this far before
TTITLE9=Glen Campbell - The hand that rocks the cradle
TTITLE10=Tanya Tucker - Texas (when I die)
TTITLE11=Barbara Mandrell - I was country when country wasn't cool
TTITLE12=Terri Gibbs - Somebody's knockin'
TTITLE13=Jack Greene - There goes my everything
TTITLE14=Jeanne Pruett - Satin Sheets
TTITLE15=Bill Anderson - Still
TTITLE16=John Conlee - Busted
TTITLE17=Cal Smith - Country Bumpkin
TTITLE18=Bobby Helms and Anita Kerr Singers - My special Angel
TTITLE19=Conway Twitty - Hello Darlin'
EXTD=
EXTT0=
EXTT1=
EXTT2=
EXTT3=
EXTT4=
EXTT5=
EXTT6=
EXTT7=
EXTT8=
EXTT9=
EXTT10=
EXTT11=
EXTT12=
EXTT13=
EXTT14=
EXTT15=
EXTT16=
EXTT17=
EXTT18=
EXTT19=
PLAYORDER=
